# xmcd
#
# Track frame offsets:
#   150
#   10795
#   29249
#   43615
#   54462
#   66194
#   78236
#   87326
#   99984
#   111763
#   122980
#   134177
#   146689
#   158934
#   172499
#   183304
#   195234
#   206616
#   217236
#   228691
#   240491
#
# Disc length: 3371 seconds
#
# Revision: 0
# Processed by: cddbd v1.5.2PL0 Copyright (c) Steve Scherf et al.
# Submitted via: uFREEDB ActiveX Control 1.5
#
DISCID=3c0d2915
DTITLE=Smokey Hogg - Sings The Blues
DYEAR=1950
DGENRE=Blues
TTITLE0=Good Morning Little School Girl
TTITLE1=Coming Back Home To You Again
TTITLE2=Look In Your Eyes Pretty Woman
TTITLE3=You Can't Keep Your Business Straight
TTITLE4=Worryin' Mind
TTITLE5=My Baby's Worryin' Me
TTITLE6=Runaway
TTITLE7=You Just Gotta Go
TTITLE8=It's Raining Here
TTITLE9=I Got Your Picture
TTITLE10=When You Get Old
TTITLE11=Goin' Back To Chicago
TTITLE12=Too Many Drivers
TTITLE13=Country Gal
TTITLE14=My Christmas Baby
TTITLE15=New Year's Eve Blues
TTITLE16=What More Can A Woman Do
TTITLE17=Oh Woman, Oh Woman
TTITLE18=Little School Girl
TTITLE19=Long Tall Mama
TTITLE20=I Fell Good
EXTD=
EXTT0=
EXTT1=
EXTT2=
EXTT3=
EXTT4=
EXTT5=
EXTT6=
EXTT7=
EXTT8=
EXTT9=
EXTT10=
EXTT11=
EXTT12=
EXTT13=
EXTT14=
EXTT15=
EXTT16=
EXTT17=
EXTT18=
EXTT19=
EXTT20=
PLAYORDER=
